<?xml version="1.0" encoding="UTF-8"?>
<svg version="1.1" xmlns="http://www.w3.org/2000/svg" width="512" height="512">
<path d="M0 0 C10.17133549 6.67071338 16.68212863 15.44334246 19.91210938 27.27490234 C20.84237062 32.03113337 20.93112161 36.90525602 21.20703125 41.734375 C22.67724263 63.26547071 27.79861427 83.69704324 38.01171875 102.796875 C39.33203125 105.421875 39.33203125 105.421875 39.33203125 107.421875 C43.31648173 103.55526409 46.92584872 99.46318503 50.51953125 95.234375 C55.86825377 88.99775236 61.42780598 83.13899454 67.33203125 77.421875 C69.84035868 74.93339193 72.32452013 72.42971113 74.76953125 69.87890625 C98.79522169 45.08410072 130.79411527 28.80007796 164.33203125 21.421875 C165.05922363 21.25671387 165.78641602 21.09155273 166.53564453 20.92138672 C189.74824156 15.88287239 217.19558711 16.19505298 240.33203125 21.421875 C241.20972168 21.60991699 242.08741211 21.79795898 242.99169922 21.99169922 C289.68013037 32.20707919 329.43567837 59.515052 355.66162109 99.44628906 C366.88944777 117.01991392 376.44619954 137.90845947 379.25 158.71875 C380.8717665 172.41608503 380.8717665 172.41608503 388.68383789 183.23046875 C391.45075122 185.30848771 394.285027 187.22435613 397.21875 189.05859375 C400.59141349 191.23430458 403.65602362 193.77093509 406.76953125 196.296875 C409.86494307 198.75375182 412.97379539 201.16891662 416.203125 203.44921875 C422.20336579 207.72708153 422.20336579 207.72708153 422.95703125 211.796875 C422.33203125 214.421875 422.33203125 214.421875 421.33203125 215.421875 C419.6440114 215.51540663 417.95207918 215.53932291 416.26147461 215.53540039 C415.18042953 215.53532486 414.09938446 215.53524933 412.98558044 215.53517151 C411.22154625 215.52742958 411.22154625 215.52742958 409.421875 215.51953125 C407.62611778 215.51740883 407.62611778 215.51740883 405.79408264 215.51524353 C401.95254059 215.50962479 398.11105582 215.49706911 394.26953125 215.484375 C391.67252688 215.47936241 389.0755216 215.47479909 386.47851562 215.47070312 C380.09633446 215.45964927 373.71418695 215.44289292 367.33203125 215.421875 C367.69441895 216.22705566 368.05680664 217.03223633 368.43017578 217.86181641 C369.80664694 220.9217604 371.18199257 223.98220554 372.55664062 227.04296875 C373.14572623 228.35403562 373.73522779 229.66491569 374.32519531 230.97558594 C375.76317284 234.17054624 377.19486901 237.36802318 378.61425781 240.57128906 C379.76154802 243.15921726 380.93849182 245.73073311 382.13574219 248.29589844 C382.69893111 249.53303776 383.26177095 250.77033606 383.82421875 252.0078125 C384.33065918 253.09884277 384.83709961 254.18987305 385.35888672 255.31396484 C386.33203125 258.421875 386.33203125 258.421875 385.33203125 264.421875 C364.21203125 264.421875 343.09203125 264.421875 321.33203125 264.421875 C315.71327444 253.8086677 310.27286034 243.33618234 305.33203125 232.421875 C300.57359136 232.9837572 295.83828241 233.636016 291.1015625 234.359375 C289.96783203 234.53210938 288.83410156 234.70484375 287.66601562 234.8828125 C285.3374416 235.23926643 283.00930542 235.59859374 280.68164062 235.9609375 C230.38911517 243.5801556 176.61514201 238.10944107 127.39453125 226.0859375 C124.2027837 225.28060027 124.2027837 225.28060027 120.33203125 225.421875 C119.89334717 226.46118164 119.45466309 227.50048828 119.00268555 228.57128906 C117.370058 232.4351488 115.73018641 236.2958987 114.08813477 240.15576172 C113.37912941 241.82517208 112.67207816 243.49541379 111.96704102 245.16650391 C110.95193735 247.57156278 109.92979013 249.97352149 108.90625 252.375 C108.59362717 253.11993713 108.28100433 253.86487427 107.95890808 254.63238525 C107.65882339 255.33280945 107.35873871 256.03323364 107.04956055 256.75488281 C106.78974899 257.36777161 106.52993744 257.9806604 106.26225281 258.61212158 C105.10268002 260.86807965 104.11952524 262.59659973 102.33203125 264.421875 C99.66220093 264.90962219 99.66220093 264.90962219 96.40771484 264.8918457 C95.18990326 264.89477127 93.97209167 264.89769684 92.71737671 264.90071106 C90.74385727 264.87444893 90.74385727 264.87444893 88.73046875 264.84765625 C87.36952186 264.84273286 86.00856821 264.83943365 84.64761353 264.83769226 C81.79773279 264.83005433 78.94835469 264.8094979 76.09863281 264.77856445 C72.43869755 264.73891439 68.77908883 264.72094398 65.11896324 264.71125507 C61.63525384 264.70130162 58.15162489 264.68140002 54.66796875 264.66015625 C53.34824066 264.65276932 52.02851257 264.64538239 50.66879272 264.63777161 C49.45728546 264.62493637 48.2457782 264.61210114 46.99755859 264.59887695 C45.92516937 264.58903275 44.85278015 264.57918854 43.74789429 264.56904602 C41.33203125 264.421875 41.33203125 264.421875 40.33203125 263.421875 C39.87295595 258.51292455 40.87131359 255.76580525 43.3671875 251.5703125 C44.01236328 250.47074219 44.65753906 249.37117187 45.32226562 248.23828125 C46.01266446 247.09093131 46.70342087 245.94379648 47.39453125 244.796875 C48.05130859 243.68441406 48.70808594 242.57195312 49.38476562 241.42578125 C52.03134158 236.94615811 54.67993976 232.47173166 57.42529297 228.05175781 C58.07385254 226.99053711 58.72241211 225.92931641 59.390625 224.8359375 C60.27512329 223.41595459 60.27512329 223.41595459 61.17749023 221.96728516 C62.51555824 219.55432907 62.51555824 219.55432907 62.17773438 217.23852539 C60.73943545 214.14892312 58.00495525 212.31331124 55.39453125 210.234375 C54.20333567 209.25784023 53.013243 208.27995866 51.82421875 207.30078125 C51.2322168 206.81625488 50.64021484 206.33172852 50.03027344 205.83251953 C46.87995193 203.21570561 43.86896346 200.44658157 40.84375 197.6875 C39.48334346 196.46038368 38.11679918 195.23935951 36.71948242 194.05444336 C30.50537716 188.75515857 24.76486765 183.0062928 19.00463867 177.22485352 C17.27308425 175.487939 15.53624766 173.75643611 13.79882812 172.02539062 C8.09735267 166.32794954 2.51606196 160.60132005 -2.66796875 154.421875 C-3.20059326 153.80127197 -3.73321777 153.18066895 -4.28198242 152.54125977 C-23.81097734 129.72108989 -43.56325579 103.17260516 -50.66796875 73.421875 C-51.52519531 73.39609375 -52.38242187 73.3703125 -53.265625 73.34375 C-60.14658284 73.00241725 -65.16740885 72.72666101 -70.66796875 68.421875 C-75.85289654 61.31251775 -74.18791716 52.5041949 -72.94140625 44.2578125 C-70.05172995 27.06972721 -65.31441282 12.05026804 -50.66796875 1.421875 C-35.25689126 -7.72316 -15.67940666 -9.2744953 0 0 Z M-55.140625 18.328125 C-62.3356518 28.19138425 -66.89334933 47.27946745 -65.66796875 59.421875 C-64.88091812 61.81911396 -64.88091812 61.81911396 -62.66796875 63.421875 C-59.61473933 64.06240995 -56.5926035 64.11892298 -53.48046875 64.171875 C-52.21299805 64.21634766 -52.21299805 64.21634766 -50.91992188 64.26171875 C-48.83645053 64.3323449 -46.75220369 64.37938295 -44.66796875 64.421875 C-44.49273682 64.96207275 -44.31750488 65.50227051 -44.13696289 66.05883789 C-35.23995647 93.1573092 -21.9749394 116.55133372 -3.66796875 138.421875 C-2.8275 139.43507813 -1.98703125 140.44828125 -1.12109375 141.4921875 C8.53591982 153.0486348 18.73650235 163.99880911 29.40356445 174.6237793 C31.03259697 176.24739729 32.65613853 177.87637103 34.27929688 179.50585938 C39.79130508 185.02184574 45.37766765 190.38087916 51.33203125 195.421875 C52.62897575 196.54920524 53.92453978 197.67812552 55.21875 198.80859375 C56.48550784 199.90904902 57.75243421 201.00931032 59.01953125 202.109375 C59.65697266 202.66431641 60.29441406 203.21925781 60.95117188 203.79101562 C66.55494367 209.57420095 66.55494367 209.57420095 73.33203125 212.421875 C72.83306407 217.59073614 71.68362321 221.22212423 69.12890625 225.73046875 C68.80923889 226.30088394 68.48957153 226.87129913 68.16021729 227.45899963 C67.14442884 229.26515968 66.11341127 231.06208278 65.08203125 232.859375 C64.40527299 234.05999668 63.72948374 235.26116511 63.0546875 236.46289062 C60.25650319 241.42443377 57.41895311 246.34590064 54.34765625 251.14453125 C52.15740764 254.06454739 52.15740764 254.06454739 52.33203125 256.421875 C67.18203125 256.421875 82.03203125 256.421875 97.33203125 256.421875 C101.53953125 246.83125 101.53953125 246.83125 105.83203125 237.046875 C107.16331055 234.02007568 107.16331055 234.02007568 108.52148438 230.93212891 C109.21904057 229.3376922 109.91632501 227.74313655 110.61328125 226.1484375 C110.9803418 225.31658936 111.34740234 224.48474121 111.72558594 223.62768555 C112.07073242 222.83612061 112.41587891 222.04455566 112.77148438 221.22900391 C113.07348755 220.54061432 113.37549072 219.85222473 113.68664551 219.14297485 C114.44906815 217.41611803 114.44906815 217.41611803 114.33203125 215.421875 C119.02520872 215.29386584 123.08498988 215.6462088 127.63671875 216.77734375 C129.4468042 217.21300659 129.4468042 217.21300659 131.29345703 217.6574707 C131.92995178 217.81285309 132.56644653 217.96823547 133.222229 218.12832642 C145.22276516 221.03684838 157.24628497 223.40418908 169.45703125 225.234375 C170.73304199 225.42862061 172.00905273 225.62286621 173.32373047 225.82299805 C177.32127231 226.40343439 181.32226427 226.93459226 185.33203125 227.421875 C186.09654602 227.5151004 186.86106079 227.60832581 187.64874268 227.70437622 C202.58645459 229.46461465 217.42698641 229.78198329 232.45703125 229.734375 C234.20484894 229.73213928 234.20484894 229.73213928 235.98797607 229.7298584 C257.55636109 229.68025803 278.47627759 228.77046696 299.51806641 223.60449219 C306.96251843 221.80986282 306.96251843 221.80986282 310.33203125 223.421875 C312.02258396 225.95011631 313.33725091 228.26667111 314.64453125 230.984375 C314.98419922 231.65662109 315.32386719 232.32886719 315.67382812 233.02148438 C316.91067582 235.47957988 318.1198482 237.95152321 319.33203125 240.421875 C323.29203125 248.341875 323.29203125 248.341875 327.33203125 256.421875 C343.17203125 256.421875 359.01203125 256.421875 375.33203125 256.421875 C370.69911207 245.17049984 366.00554072 234.03698761 360.90039062 223.00585938 C360.20333008 221.45801758 360.20333008 221.45801758 359.4921875 219.87890625 C359.07590088 218.97116455 358.65961426 218.06342285 358.23071289 217.12817383 C357.33203125 214.421875 357.33203125 214.421875 357.33203125 208.421875 C373.17203125 208.091875 389.01203125 207.761875 405.33203125 207.421875 C401.20728366 203.27194324 401.20728366 203.27194324 396.84375 199.51953125 C396.22411377 199.02404785 395.60447754 198.52856445 394.96606445 198.01806641 C393.64223972 196.97501273 392.31648017 195.93441103 390.98901367 194.89599609 C388.23858311 192.74365965 385.54920825 190.62488828 382.99609375 188.23828125 C380.43862678 185.90202978 378.63789289 184.36783935 375.06640625 184.515625 C374.1846875 184.6909375 373.30296875 184.86625 372.39453125 185.046875 C371.32759033 185.24941895 370.26064941 185.45196289 369.16137695 185.66064453 C367.89769287 185.91185059 366.63400879 186.16305664 365.33203125 186.421875 C362.96529719 186.86728222 360.59729317 187.30555602 358.22926331 187.74401855 C355.554149 188.23969048 352.8798477 188.739601 350.20556641 189.23974609 C311.2205748 196.50411957 272.05013919 201.64139295 232.33203125 201.671875 C231.52309418 201.67254974 230.7141571 201.67322449 229.88070679 201.67391968 C175.66084466 201.60324091 115.80228046 192.40653914 72.33203125 157.421875 C71.76274902 156.96393555 71.1934668 156.50599609 70.60693359 156.03417969 C66.76926036 152.91600376 63.02942344 149.70503653 59.33203125 146.421875 C58.67847656 145.84179688 58.02492188 145.26171875 57.3515625 144.6640625 C30.77204639 119.53663397 14.03438815 81.00693981 12.89453125 44.734375 C12.50082833 32.89242949 10.81209636 22.35148574 2.33203125 13.421875 C1.80738281 12.86886719 1.28273438 12.31585938 0.7421875 11.74609375 C-6.41267345 4.96160208 -16.26315575 1.99811738 -26.0078125 2.14453125 C-38.34162343 3.43043518 -47.39552627 8.91458097 -55.140625 18.328125 Z M195.21289062 26.54638672 C184.71928324 27.21560007 174.48964099 28.58636634 164.20703125 30.796875 C162.82306152 31.0921106 162.82306152 31.0921106 161.41113281 31.39331055 C154.83985141 32.88231985 148.612942 34.9928521 142.33203125 37.421875 C143.73854906 41.29660753 145.55754638 44.52687238 147.82421875 47.96484375 C148.88382813 49.57842773 148.88382813 49.57842773 149.96484375 51.22460938 C150.71216759 52.35291227 151.45956329 53.48116758 152.20703125 54.609375 C152.90828125 55.67607422 153.60953125 56.74277344 154.33203125 57.84179688 C155.43870383 59.52263024 156.54756423 61.20293258 157.71104431 62.84495544 C160.03440217 66.1728148 161.73196077 69.29948485 163.16625977 73.10375977 C165.56294126 78.71533448 168.12988614 83.03709203 173.33203125 86.421875 C184.90449912 90.86983918 198.48926824 90.89273474 210.71362305 91.77160645 C215.3584479 92.12381778 219.99369878 92.57348345 224.63085938 93.01367188 C233.00599664 93.79147958 241.38266443 94.51105624 249.77426147 95.08718872 C252.88353295 95.30207132 255.97781078 95.58371679 259.07754517 95.90768433 C260.59766005 96.04662887 262.11779086 96.18539935 263.63793945 96.32397461 C264.32504344 96.40810136 265.01214743 96.49222811 265.72007275 96.57890415 C269.60464983 96.90051254 271.78641362 96.44036443 274.74830627 94.0329895 C277.52119384 91.30212317 277.52119384 91.30212317 279.99609375 88.32421875 C281.97922738 85.86022496 283.83926803 83.97322306 286.26953125 81.984375 C290.42429015 78.44767941 294.22460133 74.5855768 298.03295898 70.68383789 C300.32883601 68.34822526 302.61226489 66.20281105 305.1953125 64.18359375 C305.90042969 63.60222656 306.60554687 63.02085937 307.33203125 62.421875 C307.33203125 61.761875 307.33203125 61.101875 307.33203125 60.421875 C277.87208569 35.99341694 232.92813381 24.33039893 195.21289062 26.54638672 Z M87.33203125 70.421875 C86.53490723 71.13657959 86.53490723 71.13657959 85.72167969 71.86572266 C77.81024132 78.96689589 70.15730759 86.19459217 63.21484375 94.2578125 C61.1245352 96.66036631 58.97962646 99.00794025 56.83203125 101.359375 C53.88721724 104.63813699 50.99133848 107.9427749 48.20703125 111.359375 C47.62695312 112.06964844 47.046875 112.77992188 46.44921875 113.51171875 C46.08054687 114.14207031 45.711875 114.77242188 45.33203125 115.421875 C45.66203125 116.411875 45.99203125 117.401875 46.33203125 118.421875 C62.66404962 120.76444945 78.99732883 123.09808882 95.33203125 125.421875 C96.20659973 125.54641052 97.08116821 125.67094604 97.98223877 125.79925537 C102.84803375 126.49179154 107.71465697 127.17802664 112.58203125 127.859375 C113.73147217 128.02276367 114.88091309 128.18615234 116.06518555 128.35449219 C117.10715088 128.49918945 118.14911621 128.64388672 119.22265625 128.79296875 C120.09954102 128.91599365 120.97642578 129.03901855 121.87988281 129.16577148 C126.73194367 129.90184033 126.73194367 129.90184033 131.07373047 128.171875 C131.5895166 127.594375 132.10530273 127.016875 132.63671875 126.421875 C133.21631348 125.78620605 133.7959082 125.15053711 134.39306641 124.49560547 C134.9916748 123.81127441 135.5902832 123.12694336 136.20703125 122.421875 C136.83270996 121.72852051 137.45838867 121.03516602 138.10302734 120.32080078 C139.86056592 118.36680712 141.59981938 116.39831799 143.33203125 114.421875 C144.0075 113.65617187 144.68296875 112.89046875 145.37890625 112.1015625 C146.41802542 110.91326286 147.4507758 109.71935888 148.4765625 108.51953125 C150.06763679 106.7207799 151.69156736 104.97261423 153.34375 103.23046875 C153.88628418 102.65506348 154.42881836 102.0796582 154.98779297 101.48681641 C156.06809628 100.34410831 157.15411824 99.20677152 158.24658203 98.07568359 C162.37480345 93.82010371 162.37480345 93.82010371 164.33203125 88.421875 C163.15014275 85.85638902 161.97987388 83.84727962 160.39453125 81.546875 C159.72901245 80.53367187 159.72901245 80.53367187 159.05004883 79.5 C158.05224766 77.98365251 157.0464316 76.47255949 156.03417969 74.96582031 C153.48686403 71.15873064 150.99912638 67.31336661 148.50366211 63.47216797 C146.00732271 59.63443395 143.49560948 55.80686518 140.98193359 51.98046875 C139.4414543 49.59156331 137.97083782 47.17114458 136.5078125 44.734375 C135.78980469 43.64125 135.07179688 42.548125 134.33203125 41.421875 C119.06083793 41.421875 98.09910171 60.67203247 87.33203125 70.421875 Z M313.33203125 67.421875 C312.85894531 67.90019775 312.38585937 68.37852051 311.8984375 68.87133789 C309.71238719 71.0784284 307.52223996 73.28141133 305.33203125 75.484375 C304.21634766 76.61262695 304.21634766 76.61262695 303.078125 77.76367188 C298.91910393 81.94077564 294.67507718 85.92812303 290.20703125 89.77172852 C287.28713976 92.34146115 284.55862681 95.08756804 281.83203125 97.859375 C281.29578125 98.40013672 280.75953125 98.94089844 280.20703125 99.49804688 C278.91299089 100.80364117 277.62214951 102.11240496 276.33203125 103.421875 C280.41245388 113.46311717 284.80300526 123.36224081 289.23486328 133.25219727 C290.05624612 135.08841289 290.87455942 136.92600438 291.68994141 138.76489258 C292.87909857 141.44654396 294.07715424 144.12405256 295.27734375 146.80078125 C295.63990265 147.62260391 296.00246155 148.44442657 296.37600708 149.29115295 C296.89201981 150.43395973 296.89201981 150.43395973 297.41845703 151.59985352 C297.71648224 152.26759293 298.01450745 152.93533234 298.32156372 153.62330627 C299.50126432 155.72309923 300.39229708 156.96957254 302.33203125 158.421875 C305.30661522 159.20865784 305.30661522 159.20865784 308.77539062 159.60449219 C309.74905327 159.73923195 309.74905327 159.73923195 310.74238586 159.87669373 C312.88537231 160.16989457 315.03027478 160.4446496 317.17578125 160.71875 C318.66658572 160.9177244 320.15726651 161.11762758 321.64782715 161.31842041 C324.77057764 161.73633538 327.89429911 162.14560566 331.01904297 162.54833984 C335.02587692 163.06508473 339.03016588 163.59910365 343.03392792 164.13908005 C346.11123922 164.55288037 349.18945384 164.95958532 352.26802063 165.36392975 C353.74504681 165.55839551 355.22184631 165.75459096 356.69841003 165.95253754 C358.76100308 166.22754556 360.82456253 166.49348422 362.88867188 166.75683594 C364.06320923 166.90989197 365.23774658 167.062948 366.44787598 167.22064209 C369.4006657 167.6109367 369.4006657 167.6109367 372.33203125 166.421875 C364.44170364 131.91532705 350.26636431 101.89825878 325.33203125 76.421875 C324.27628906 75.29072266 324.27628906 75.29072266 323.19921875 74.13671875 C320.00637653 70.77110369 317.70841873 69.10058085 313.33203125 67.421875 Z M170.83911133 95.76367188 C170.26572021 96.38306641 169.6923291 97.00246094 169.1015625 97.640625 C168.46283203 98.32640625 167.82410156 99.0121875 167.16601562 99.71875 C166.49892578 100.44578125 165.83183594 101.1728125 165.14453125 101.921875 C164.49677734 102.61796875 163.84902344 103.3140625 163.18164062 104.03125 C159.38411898 108.12847615 155.67870567 112.29614397 152.01293945 116.51123047 C148.89604606 120.05412193 145.65913914 123.48586326 142.43164062 126.92773438 C140.1807389 129.34579653 138.16902522 131.66638405 136.33203125 134.421875 C136.66249876 140.05603919 138.42261956 144.97959493 140.38671875 150.20703125 C140.68893341 151.02634628 140.99114807 151.84566132 141.30252075 152.68980408 C141.93975524 154.41299722 142.58034828 156.13495173 143.22412109 157.85571289 C144.20430418 160.4770818 145.17329528 163.10238003 146.140625 165.72851562 C146.76366782 167.40909718 147.38734456 169.08944388 148.01171875 170.76953125 C148.29933075 171.54780777 148.58694275 172.32608429 148.88327026 173.12794495 C151.29565448 181.00867653 151.29565448 181.00867653 156.58203125 186.55859375 C157.48953125 186.74035156 158.39703125 186.92210937 159.33203125 187.109375 C160.40582031 187.32851563 161.47960937 187.54765625 162.5859375 187.7734375 C163.82214844 187.98742187 165.05835938 188.20140625 166.33203125 188.421875 C167.01894043 188.5465918 167.70584961 188.67130859 168.41357422 188.79980469 C188.68115957 192.45040378 208.78643387 193.74194773 229.36401367 193.62768555 C232.79027692 193.60926346 236.21627009 193.60717799 239.64257812 193.60742188 C256.0174958 193.66287579 256.0174958 193.66287579 272.33203125 192.421875 C273.03360352 192.36572021 273.73517578 192.30956543 274.45800781 192.25170898 C277.51151864 190.89958766 278.39050235 188.46636803 279.96875 185.59375 C280.29365921 185.0077301 280.61856842 184.42171021 280.95332336 183.81793213 C281.63766058 182.57720452 282.31559516 181.33292695 282.98754883 180.08544922 C284.01245433 178.18499752 285.05797282 176.29714402 286.10742188 174.41015625 C290.41208856 167.30479919 290.41208856 167.30479919 292.33203125 159.421875 C291.40345361 156.77973847 290.42154499 154.41639749 289.2109375 151.91015625 C288.87562515 151.1880899 288.54031281 150.46602356 288.19483948 149.72207642 C287.10719613 147.38677814 286.00113461 145.06074008 284.89453125 142.734375 C284.14883729 141.14265919 283.40453351 139.55029135 282.66162109 137.95727539 C281.56199692 135.60032161 280.46129189 133.24394097 279.35510254 130.89006042 C276.29868463 124.38493999 273.3718046 117.82854073 270.54125977 111.22192383 C269.36050758 108.51055403 268.44510168 106.53494543 266.33203125 104.421875 C263.43771489 103.93933855 260.60621796 103.57287484 257.69140625 103.27685547 C256.79699829 103.17902771 255.90259033 103.08119995 254.9810791 102.98040771 C252.01557034 102.65820367 249.0488901 102.34856744 246.08203125 102.0390625 C244.026939 101.81845534 241.97192674 101.59710181 239.91699219 101.37503052 C234.5000022 100.79180778 229.08192347 100.2193622 223.66357422 99.64892578 C219.23470487 99.18091834 214.80663896 98.70556563 210.37860107 98.22976494 C201.24409994 97.24826259 192.10907328 96.27162033 182.97265625 95.30810547 C182.12272095 95.21774017 181.27278564 95.12737488 180.39709473 95.03427124 C175.24855134 94.014504 175.24855134 94.014504 170.83911133 95.76367188 Z M55.33203125 128.421875 C63.77855095 150.01329098 98.25525491 165.81217778 117.95507812 174.43408203 C130.28122017 180.01860102 130.28122017 180.01860102 143.33203125 182.421875 C140.99265898 174.02849087 138.06484191 165.8612581 135.08862305 157.67822266 C134.26192793 155.40093017 133.44432888 153.12049529 132.62695312 150.83984375 C132.10080913 149.38782189 131.57413598 147.93599163 131.046875 146.484375 C130.80412338 145.8042334 130.56137177 145.1240918 130.31126404 144.42333984 C129.26351604 141.56651556 128.51084514 139.60068889 126.33203125 137.421875 C123.50329405 136.77816657 123.50329405 136.77816657 120.12573242 136.36865234 C118.82065231 136.18861664 117.5155722 136.00858093 116.17094421 135.8230896 C114.73899928 135.6343869 113.30701691 135.44596819 111.875 135.2578125 C110.41001298 135.05953287 108.94511422 134.8606001 107.4803009 134.66104126 C104.40672908 134.24409109 101.33247581 133.8327626 98.25756836 133.42578125 C94.3222803 132.90480445 90.3884634 132.37360087 86.4550581 131.83861351 C83.42793893 131.42742598 80.40033732 131.01989324 77.37255287 130.61363602 C75.92243363 130.41897067 74.47240876 130.22360103 73.02248192 130.02750778 C70.99093117 129.75368147 68.95883675 129.48433477 66.92651367 129.21630859 C65.19349251 128.98553116 65.19349251 128.98553116 63.42546082 128.75009155 C60.69454948 128.46033862 58.07454686 128.35665384 55.33203125 128.421875 Z M300.33203125 166.421875 C298.49259118 169.04964653 296.91608243 171.63973434 295.33203125 174.421875 C294.63246052 175.61514085 293.93186856 176.80780836 293.23046875 178 C292.4925787 179.26509415 291.7556026 180.53072181 291.01953125 181.796875 C290.47679565 182.7252417 290.47679565 182.7252417 289.9230957 183.67236328 C287.966314 186.84209675 287.966314 186.84209675 287.33203125 190.421875 C297.92245169 189.82246168 308.2985996 188.37048206 318.76953125 186.734375 C320.03389008 186.53853821 320.03389008 186.53853821 321.3237915 186.33874512 C333.1601364 184.4983489 344.95352089 182.48407385 356.70703125 180.171875 C357.97732178 179.92606689 359.2476123 179.68025879 360.55639648 179.42700195 C361.70696533 179.19327881 362.85753418 178.95955566 364.04296875 178.71875 C365.04634277 178.51604492 366.0497168 178.31333984 367.08349609 178.10449219 C367.8255127 177.87922852 368.5675293 177.65396484 369.33203125 177.421875 C369.66203125 176.761875 369.99203125 176.101875 370.33203125 175.421875 C361.64844186 174.24609096 352.96456801 173.07243718 344.28032207 171.90151215 C340.24801781 171.35775513 336.21581592 170.81326111 332.18383789 170.26708984 C328.29374339 169.74016559 324.40339332 169.21516807 320.51285744 168.69151306 C319.02759319 168.4912546 317.54242281 168.29029863 316.05734825 168.08863831 C313.97947471 167.80660154 311.90128313 167.52703247 309.82299805 167.24804688 C308.63941208 167.08816284 307.45582611 166.92827881 306.2363739 166.7635498 C303.32285093 166.3634565 303.32285093 166.3634565 300.33203125 166.421875 Z " fill="#000000" transform="translate(81.66796875,126.578125)"/>
<path d="M0 0 C3.15576082 2.07993327 4.34779653 3.30699132 5.75 6.8125 C6.29768238 11.74164139 6.29281153 13.80174749 3.9375 18.1875 C1.66262233 20.91735321 0.05924564 22.59842369 -3.51953125 23.18359375 C-8.00791286 23.30080187 -11.23845813 23.37827717 -14.8125 20.4375 C-18.59027548 16.36912641 -18.58964393 13.68724936 -18.53515625 8.29296875 C-18.13136394 4.78052881 -16.86222617 3.13447882 -14.25 0.8125 C-9.84994254 -2.3737485 -4.89856324 -1.78985965 0 0 Z M-8.25 7.8125 C-8.91 9.1325 -9.57 10.4525 -10.25 11.8125 C-9.26 12.8025 -8.27 13.7925 -7.25 14.8125 C-5.93 14.1525 -4.61 13.4925 -3.25 12.8125 C-3.58 11.1625 -3.91 9.5125 -4.25 7.8125 C-5.57 7.8125 -6.89 7.8125 -8.25 7.8125 Z " fill="#000000" transform="translate(55.25,143.1875)"/>
</svg>
